<?xml version="1.0" encoding="UTF-8"?>
<svg width="43px" height="43px" viewBox="0 0 43 43" version="1.1" xmlns="http://www.w3.org/2000/svg" xmlns:xlink="http://www.w3.org/1999/xlink">
    <!-- Generator: Sketch 42 (36781) - http://www.bohemiancoding.com/sketch -->
    <title>05</title>
    <desc>Created with Sketch.</desc>
    <defs>
        <polygon id="path-1" points="-0.00015524682 11.2522974 -0.00015524682 0.611828257 25.9817786 0.611828257 25.9817786 11.2522974 -0.00015524682 11.2522974"></polygon>
        <polygon id="path-3" points="0.999844753 21.5734987 0.999844753 0.24069439 26.9825123 0.24069439 26.9825123 32.2083333 0.999844753 32.2083333 0.999844753 21.5734987 0.999111111 32.2081889 26.9817786 32.2081889 26.9817786 21.5734987"></polygon>
    </defs>
    <g id="Page-1" stroke="none" stroke-width="1" fill="none" fill-rule="evenodd">
        <g id="工作台" transform="translate(-778.000000, -371.000000)">
            <g id="05" transform="translate(778.000000, 371.000000)">
                <circle id="Oval" fill="#FFFFFF" cx="21.5" cy="21.5" r="21.5"></circle>
                <g id="Page-1" transform="translate(8.000000, 9.000000)">
                    <g id="Group-3" transform="translate(1.000000, 13.144208)">
                        <mask id="mask-2" fill="white">
                            <use xlink:href="#path-1"></use>
                        </mask>
                        <g id="Clip-2"></g>
                        <path d="M12.9889776,4.75677136 C6.89241199,4.75677136 1.78479591,2.99275061 0.390875976,0.611828257 C0.145839525,1.03224598 -0.000888888889,1.46711105 -0.000888888889,1.91497872 L-0.000888888889,5.80998277 C-0.000888888889,8.81791987 5.81542543,11.2522974 12.9889776,11.2522974 C20.1654643,11.2522974 25.9817786,8.81791987 25.9817786,5.80998277 L25.9817786,1.91497872 C25.9817786,1.46711105 25.8365175,1.03224598 25.5900138,0.611828257 C24.1931593,2.99275061 19.089945,4.75677136 12.9889776,4.75677136" id="Fill-1" fill="#EE7900" mask="url(#mask-2)"></path>
                    </g>
                    <g id="Group-6" transform="translate(0.000000, 0.227542)">
                        <mask id="mask-4" fill="white">
                            <use xlink:href="#path-3"></use>
                        </mask>
                        <g id="Clip-5"></g>
                        <path d="M13.9889776,25.7097734 C7.89241199,25.7097734 2.78479591,23.9399737 1.39087598,21.5734987 C1.14583952,21.9881374 0.999111111,22.420113 0.999111111,22.8708702 L0.999111111,26.7644295 C0.999111111,29.7709219 6.81542543,32.2081889 13.9889776,32.2081889 C21.1654643,32.2081889 26.9817786,29.7709219 26.9817786,26.7644295 L26.9817786,22.8708702 C26.9817786,22.420113 26.8365175,21.9881374 26.5900138,21.5734987 C25.1931593,23.9399737 20.089945,25.7097734 13.9889776,25.7097734" id="Fill-4" fill="#EE7900" mask="url(#mask-4)"></path>
                    </g>
                    <g id="Group-9" transform="translate(1.000000, 5.394208)" fill="#EE7900">
                        <path d="M25.6243482,0.584967243 C25.3719753,2.78529779 19.8212394,4.54931854 12.9895645,4.54931854 C6.15935683,4.54931854 0.605686374,2.78529779 0.35624807,0.587856712 C0.133220881,0.985158682 -0.000301975234,1.39979747 -0.000301975234,1.8288836 L-0.000301975234,5.72099818 C-0.000301975234,8.73182475 5.81601235,11.1633128 12.9895645,11.1633128 C20.1645839,11.1633128 25.9823655,8.73182475 25.9823655,5.72099818 L25.9823655,1.8288836 C25.9823655,1.39979747 25.8488427,0.985158682 25.6243482,0.584967243" id="Fill-7"></path>
                    </g>
                    <path d="M13.9889776,8.70784551 C20.9820538,8.70784551 26.6487051,6.8658091 26.6487051,4.59035236 C26.6487051,2.31345088 20.9820538,0.468525003 13.9889776,0.468525003 C6.99590138,0.468525003 1.33071733,2.31345088 1.33071733,4.59035236 C1.33071733,6.8658091 6.99590138,8.70784551 13.9889776,8.70784551" id="Fill-10" fill="#EE7900"></path>
                </g>
            </g>
        </g>
    </g>
</svg>