<?xml version="1.0" encoding="UTF-8"?>
<svg width="43px" height="43px" viewBox="0 0 43 43" version="1.1" xmlns="http://www.w3.org/2000/svg" xmlns:xlink="http://www.w3.org/1999/xlink">
    <!-- Generator: Sketch 42 (36781) - http://www.bohemiancoding.com/sketch -->
    <title>06</title>
    <desc>Created with Sketch.</desc>
    <defs></defs>
    <g id="Page-1" stroke="none" stroke-width="1" fill="none" fill-rule="evenodd">
        <g id="工作台" transform="translate(-938.000000, -371.000000)">
            <g id="06" transform="translate(938.000000, 371.000000)">
                <circle id="Oval" fill="#FFFFFF" cx="21.5" cy="21.5" r="21.5"></circle>
                <g id="Page-1" transform="translate(11.000000, 11.000000)" fill="#EE7900">
                    <g id="Group-3" transform="translate(2.000000, 4.021700)">
                        <path d="M12.1729,2.9062 L12.1469,2.2362 C12.1469,0.6152 10.6509,0.6402 10.6509,0.6402 L6.6569,0.6402 C5.0359,0.6402 5.1089,2.1112 5.1089,2.1112 L5.1089,2.9432 C3.8179,3.4142 2.5419,4.1872 1.8939,5.4552 C1.8939,5.4552 0.2489,8.7092 0.2489,10.6622 L0.2489,13.4042 C0.2489,13.4042 0.1139,15.0002 1.8439,15.0002 L15.3249,15.0002 C15.3249,15.0002 16.9859,14.9332 16.9859,13.4042 L16.9859,10.7912 C16.9859,8.2202 15.3319,5.4702 15.3319,5.4702 C14.4479,4.1622 13.2469,3.3752 12.1729,2.9062" id="Fill-1"></path>
                    </g>
                    <path d="M21.0342,4.4982 C20.8602,3.4362 19.1122,0.0232 10.8642,0.0002 C2.3022,-0.0288 0.2962,3.5162 0.1962,4.6522 L0.0002,6.3912 L0.0022,6.3932 C0.0072,6.7912 0.3292,7.0742 0.6942,7.0742 L0.6982,7.0762 L5.6402,7.0292 C6.0202,7.0292 6.3172,6.7192 6.3152,6.3442 L6.0572,4.6032 C6.1332,3.8812 7.0122,3.7092 8.7602,3.5162 L12.9702,3.4752 C13.9852,3.5762 14.9662,3.7582 15.0362,4.5452 L14.9132,6.2832 L14.9172,6.2832 C14.9222,6.6842 15.2462,6.9692 15.6102,6.9652 L15.6132,6.9652 L20.5512,6.9242 C20.9332,6.9242 21.2332,6.6132 21.2312,6.2362 L21.0342,4.4982 Z" id="Fill-4"></path>
                </g>
            </g>
        </g>
    </g>
</svg>