<?xml version="1.0" encoding="UTF-8"?>
<svg width="43px" height="43px" viewBox="0 0 43 43" version="1.1" xmlns="http://www.w3.org/2000/svg" xmlns:xlink="http://www.w3.org/1999/xlink">
    <!-- Generator: Sketch 42 (36781) - http://www.bohemiancoding.com/sketch -->
    <title>2</title>
    <desc>Created with Sketch.</desc>
    <defs></defs>
    <g id="Page-1" stroke="none" stroke-width="1" fill="none" fill-rule="evenodd">
        <g id="工作台" transform="translate(-298.000000, -181.000000)">
            <g id="2" transform="translate(298.000000, 181.000000)">
                <circle id="Oval" fill="#FFFFFF" cx="21.5" cy="21.5" r="21.5"></circle>
                <g transform="translate(10.000000, 14.000000)" fill="#F9B800">
                    <path d="M11.2706286,8.04171429 C10.7460571,7.81885714 10.5209143,7.66 10.5209143,7.35257143 C10.5209143,7.10457143 10.6957714,6.82571429 11.1632,6.82571429 C11.5483429,6.82571429 11.7963429,6.96514286 11.9266286,7.03714286 L12.0752,6.63714286 C11.8946286,6.53542857 11.6477714,6.43828571 11.2866286,6.42571429 L11.2866286,5.83828571 L10.9072,5.83828571 L10.9072,6.44514286 C10.3552,6.53542857 9.99862857,6.91714286 9.99862857,7.41885714 C9.99862857,7.94457143 10.3792,8.22914286 10.9974857,8.47028571 C11.4454857,8.65314286 11.6832,8.86 11.6832,9.19142857 C11.6832,9.53771429 11.3917714,9.78457143 10.9609143,9.78457143 C10.6214857,9.78457143 10.3083429,9.66342857 10.0957714,9.52514286 L9.95291429,9.92971429 C10.1620571,10.0817143 10.5209143,10.1902857 10.8706286,10.1971429 L10.8706286,10.8028571 L11.2500571,10.8028571 L11.2500571,10.172 C11.8774857,10.076 12.2066286,9.62685714 12.2066286,9.14457143 C12.2066286,8.60628571 11.8946286,8.29657143 11.2706286,8.04171429" id="Fill-1"></path>
                    <g id="Group-5" transform="translate(0.000000, 0.364457)">
                        <path d="M11.0793143,11.6555429 C9.15474286,11.6555429 7.59588571,10.0966857 7.59588571,8.17325714 C7.59588571,6.24868571 9.15474286,4.68982857 11.0793143,4.68982857 C13.0050286,4.68982857 14.5616,6.24868571 14.5616,8.17325714 C14.5616,10.0966857 13.0050286,11.6555429 11.0793143,11.6555429 M11.3661714,2.58697143 C3.9536,5.96411429 0.000457142857,1.5984 0.000457142857,1.5984 L0.000457142857,13.0486857 C0.000457142857,13.0486857 7.66217143,16.3446857 11.6141714,14.0372571 C15.5707429,11.7298286 23.4793143,13.0486857 23.4793143,13.0486857 L23.4793143,1.5984 C23.4793143,1.5984 18.7821714,-0.790171429 11.3661714,2.58697143" id="Fill-3"></path>
                    </g>
                </g>
            </g>
        </g>
    </g>
</svg>