<?xml version="1.0" encoding="UTF-8"?>
<svg width="43px" height="43px" viewBox="0 0 43 43" version="1.1" xmlns="http://www.w3.org/2000/svg" xmlns:xlink="http://www.w3.org/1999/xlink">
    <!-- Generator: Sketch 42 (36781) - http://www.bohemiancoding.com/sketch -->
    <title>3</title>
    <desc>Created with Sketch.</desc>
    <defs>
        <polygon id="path-1" points="15.8403846 15.4111179 15.8403846 0.0694285714 0.531057692 0.0694285714 0.531057692 15.4111179 15.8403846 15.4111179"></polygon>
    </defs>
    <g id="Page-1" stroke="none" stroke-width="1" fill="none" fill-rule="evenodd">
        <g id="工作台" transform="translate(-458.000000, -181.000000)">
            <g id="3" transform="translate(458.000000, 181.000000)">
                <circle id="Oval" fill="#FFFFFF" cx="21.5" cy="21.5" r="21.5"></circle>
                <g transform="translate(10.000000, 8.000000)">
                    <g id="Group-3" transform="translate(0.000000, 3.933722)" fill="#F9B800">
                        <path d="M15.9079808,20.0068071 L12.9243269,15.2663786 C12.6954808,14.8989857 12.2195192,14.7977357 11.8579808,15.0253071 L10.3377885,16.3078071 C9.59836538,16.6732714 8.90990385,15.9278786 7.68201923,14.3532 L5.13875,10.3147714 C4.62913462,9.27912857 4.21759615,8.22227143 4.93298077,7.68612857 L6.68105769,6.76523571 L6.68105769,6.75752143 C7.06182692,6.51837857 7.14067308,6.03623571 6.92144231,5.68716429 L6.92144231,5.68330714 L3.93778846,0.939985714 C3.70990385,0.574521429 3.23490385,0.472307143 2.87240385,0.698914286 L1.31759615,1.92259286 C0.399326923,2.72680714 -1.84298077,6.44991429 3.04644231,14.4245571 C8.11663462,22.7019857 12.7214423,22.5187714 13.8743269,21.9392357 L15.6647115,21.0897 L15.6647115,21.0839143 C16.0474038,20.8428429 16.12625,20.3607 15.9079808,20.0125929 L15.9079808,20.0068071 Z" id="Fill-1"></path>
                    </g>
                    <path d="M14.0844231,14.6555182 C14.0017308,12.3749825 12.5123077,10.6190182 9.97,10.574661 C9.84019231,10.5708039 9.76615385,10.5727325 9.76615385,10.8157325 L9.80653846,14.847411 L13.7440385,14.9303396 C14.1584615,14.9303396 14.0844231,14.7914825 14.0844231,14.6555182" id="Fill-4" fill="#F9B800"></path>
                    <path d="M9.42134615,5.15961818 C9.29153846,5.15961818 9.18480769,5.26472532 9.18480769,5.39683247 L9.18480769,8.2839039 C9.18480769,8.41408247 9.29153846,8.51726104 9.42134615,8.51726104 C13.1203846,8.51726104 16.13,11.5383682 16.13,15.2508682 C16.13,15.3810468 16.2367308,15.4880825 16.3665385,15.4880825 L19.2511538,15.4880825 L19.2588462,15.4880825 C19.3915385,15.4880825 19.4973077,15.3810468 19.4973077,15.2508682 L19.4857692,15.1775825 C19.4444231,9.64354675 14.9425,5.15961818 9.42134615,5.15961818" id="Fill-6" fill="#F9B800"></path>
                    <g id="Group-10" transform="translate(8.653846, 0.076579)">
                        <mask id="mask-2" fill="white">
                            <use xlink:href="#path-1"></use>
                        </mask>
                        <g id="Clip-9"></g>
                        <path d="M15.8272115,15.1006179 C15.7858654,6.80390357 9.04548077,0.0693321429 0.767596154,0.0693321429 C0.637788462,0.0693321429 0.531057692,0.176367857 0.531057692,0.308475 L0.531057692,3.28233214 C0.531057692,3.41251071 0.637788462,3.51761786 0.767596154,3.51761786 C7.17528846,3.51761786 12.3925962,8.745975 12.3925962,15.1739036 C12.3925962,15.3021536 12.4945192,15.4111179 12.6252885,15.4111179 L15.5916346,15.4111179 C15.7310577,15.4111179 15.8406731,15.3040821 15.8406731,15.1739036 L15.8272115,15.1006179 Z" id="Fill-8" fill="#F9B800" mask="url(#mask-2)"></path>
                    </g>
                </g>
            </g>
        </g>
    </g>
</svg>