<?xml version="1.0" encoding="UTF-8"?>
<svg width="27px" height="35px" viewBox="0 0 27 35" version="1.1" xmlns="http://www.w3.org/2000/svg" xmlns:xlink="http://www.w3.org/1999/xlink">
    <!-- Generator: Sketch 42 (36781) - http://www.bohemiancoding.com/sketch -->
    <title>Page 1</title>
    <desc>Created with Sketch.</desc>
    <defs></defs>
    <g id="Page-1" stroke="none" stroke-width="1" fill="none" fill-rule="evenodd">
        <g id="岗位模版" transform="translate(-145.000000, -137.000000)">
            <g id="Page-1" transform="translate(145.000000, 137.000000)">
                <path d="M2.90449462,33.1654245 L2.90449462,25.0781656 L2.5775415,25.0057066 C1.08401962,24.6731249 0.000104625,23.329245 0.000104625,21.8091698 L0.000104625,14.1696971 C0.000104625,12.3629136 1.47531712,10.8923607 3.2889915,10.8923607 L9.23116837,10.8923607 C11.0448427,10.8923607 12.5200552,12.3629136 12.5200552,14.1696971 L12.5200552,14.5132257 C12.1826396,14.651367 11.8504552,14.8056682 11.5261177,14.9745654 L11.5261177,14.1696971 C11.5261177,12.9092232 10.4966077,11.8833288 9.23116837,11.8833288 L3.2889915,11.8833288 C2.02355212,11.8833288 0.994042125,12.9092232 0.994042125,14.1696971 L0.994042125,21.8091698 C0.994042125,23.0696437 2.02355212,24.0955381 3.2889915,24.0955381 L3.889539,24.0955381 L3.897909,33.1654245 L2.90449462,33.1654245 Z" id="Fill-1" fill="#727272"></path>
                <path d="M6.26060306,0.990655333 C4.56620119,0.990655333 3.18776681,2.36424868 3.18776681,4.05269986 C3.18776681,5.74115105 4.56620119,7.1147444 6.26060306,7.1147444 C7.95395869,7.1147444 9.33134681,5.74115105 9.33134681,4.05269986 C9.33134681,2.36424868 7.95395869,0.990655333 6.26060306,0.990655333 M6.26060306,8.10519121 C4.01796619,8.10519121 2.19382931,6.28746066 2.19382931,4.05269986 C2.19382931,1.81793907 4.01796619,0.00020851512 6.26060306,0.00020851512 C8.50219369,0.00020851512 10.3258074,1.81793907 10.3258074,4.05269986 C10.3258074,6.28746066 8.50219369,8.10519121 6.26060306,8.10519121" id="Fill-3" fill="#727272"></path>
                <g id="Group-7" transform="translate(8.167500, 16.139820)" fill="#EE7900">
                    <path d="M9.085635,0.990446818 C4.62390188,0.990446818 0.9939375,4.60662028 0.9939375,9.05268392 C0.9939375,13.4982263 4.62390188,17.114921 9.085635,17.114921 C13.5494606,17.114921 17.1809944,13.4982263 17.1809944,9.05268392 C17.1809944,4.60662028 13.5494606,0.990446818 9.085635,0.990446818 M9.085635,18.1053678 C4.07566688,18.1053678 0,14.0440146 0,9.05268392 C0,4.06135324 4.07566688,0 9.085635,0 C14.0976956,0 18.1749319,4.06135324 18.1749319,9.05268392 C18.1749319,14.0440146 14.0976956,18.1053678 9.085635,18.1053678" id="Fill-5"></path>
                </g>
                <ellipse id="Oval" fill="#EE7900" cx="17.5" cy="24.8132992" rx="8.5" ry="8.60869565"></ellipse>
                <path d="M17.296875,20.6777494 L17.296875,29.9616368" id="Line" stroke="#FFFFFF" stroke-linecap="square"></path>
                <path d="M12.65625,25.3196931 L21.9375,25.3196931" id="Line" stroke="#FFFFFF" stroke-linecap="square"></path>
            </g>
        </g>
    </g>
</svg>