<?xml version="1.0" encoding="UTF-8"?>
<svg width="158px" height="34px" viewBox="0 0 158 34" version="1.1" xmlns="http://www.w3.org/2000/svg" xmlns:xlink="http://www.w3.org/1999/xlink">
    <!-- Generator: Sketch 42 (36781) - http://www.bohemiancoding.com/sketch -->
    <title>未标题-1</title>
    <desc>Created with Sketch.</desc>
    <defs>
        <linearGradient x1="50.0625%" y1="99.865625%" x2="50.0625%" y2="-0.0734375%" id="linearGradient-1">
            <stop stop-color="#FABE00" offset="0%"></stop>
            <stop stop-color="#EE7800" offset="100%"></stop>
        </linearGradient>
    </defs>
    <g id="Symbols" stroke="none" stroke-width="1" fill="none" fill-rule="evenodd">
        <g id="页头" transform="translate(-112.000000, -10.000000)" fill-rule="nonzero">
            <g id="未标题-1" transform="translate(112.000000, 10.000000)">
                <g id="Group">
                    <g>
                        <ellipse id="Oval" fill="url(#linearGradient-1)" cx="21.5635413" cy="14.14" rx="13.2227819" ry="13.44"></ellipse>
                        <path d="M42.9128245,32.2 C37.6788067,30.52 30.1032546,29.4 21.5635413,29.4 C13.023828,29.4 5.44827586,30.52 0.21425804,32.2 L42.9128245,32.2 Z" id="Shape" fill="#F39800"></path>
                    </g>
                    <g transform="translate(45.943045, 3.697436)" id="Shape" fill="#000000">
                        <path d="M54.9571871,15.4825641 C53.0288648,14.5025641 51.376017,12.4025641 50.5495932,11.0025641 L50.5495932,10.8625641 L54.2685006,10.8625641 L54.2685006,10.7225641 L54.2685006,9.1825641 L54.2685006,9.0425641 L54.1307633,9.0425641 L49.3099574,9.0425641 L49.3099574,7.3625641 L53.0288648,7.3625641 L53.0288648,1.0625641 L43.9382022,1.0625641 L43.9382022,7.3625641 L47.5193723,7.3625641 L47.5193723,9.0425641 L42.4230918,9.0425641 L42.4230918,10.8625641 L45.7287873,10.8625641 L45.7287873,11.0025641 C45.177838,11.9825641 43.6627276,14.3625641 41.596668,15.4825641 L41.4589306,15.4825641 L41.4589306,4.7025641 L41.4589306,4.7025641 C41.7344053,4.1425641 42.0098799,3.5825641 42.2853545,3.1625641 L42.2853545,3.0225641 C42.5608291,2.4625641 42.8363038,1.9025641 43.2495157,1.2025641 L43.2495157,1.0625641 L43.1117784,1.0625641 C42.8363038,0.922564103 42.1476172,0.502564103 41.3211933,0.0825641026 L41.183456,0.0825641026 L41.183456,0.222564103 C40.2192948,3.0225641 38.4287098,6.3825641 36.6381248,8.9025641 L36.6381248,9.0425641 L36.6381248,9.1825641 C37.0513367,9.7425641 37.4645486,10.3025641 37.7400232,10.8625641 L37.8777606,11.0025641 C37.8777606,10.8625641 38.0154979,10.8625641 38.0154979,10.8625641 C38.0154979,10.7225641 38.979659,9.4625641 39.5306083,8.4825641 L39.6683456,8.3425641 L39.6683456,18.2825641 L39.8060829,18.2825641 L41.4589306,18.2825641 L41.3211933,18.2825641 L41.3211933,18.1425641 L41.3211933,16.3225641 L41.4589306,16.3225641 L41.4589306,16.3225641 L41.4589306,16.3225641 C41.8721426,16.6025641 42.1476172,16.8825641 42.6985664,17.3025641 L42.8363038,17.3025641 L42.9740411,17.1625641 L42.9740411,17.1625641 C44.4891515,15.7625641 46.1419992,14.3625641 47.381635,11.9825641 L47.5193723,11.9825641 L47.5193723,18.2825641 L47.6571096,18.2825641 L48.3457962,18.2825641 L49.1722201,18.2825641 L49.3099574,18.2825641 L49.3099574,12.2625641 L49.4476947,12.2625641 C50.4118559,14.6425641 51.6514917,15.7625641 53.4420767,17.3025641 L53.579814,17.4425641 L53.7175513,17.3025641 C53.8552886,17.1625641 53.993026,16.8825641 54.1307633,16.7425641 L54.2685006,16.6025641 C54.5439752,16.3225641 54.8194498,15.9025641 55.2326618,15.6225641 L55.3703991,15.4825641 L54.9571871,15.4825641 Z M45.8665246,5.6825641 L45.8665246,2.8825641 L51.1005424,2.8825641 L51.1005424,5.6825641 L45.8665246,5.6825641 Z"></path>
                        <g transform="translate(18.793491, 0.502564)">
                            <path d="M16.0540488,2.66 L16.0540488,2.66 L14.2634638,1.12 L14.2634638,1.26 C13.2993026,2.8 12.1974041,4.2 11.0955056,5.32 L10.9577683,5.46 L12.610616,6.58 L12.610616,6.58 C13.7125145,5.6 15.227625,3.78 16.0540488,2.66 Z"></path>
                            <path d="M9.5803952,15.54 C9.5803952,15.82 9.5803952,16.24 9.71813251,16.52 C9.85586982,16.8 9.99360713,17.08 10.2690818,17.36 C10.5445564,17.64 10.820031,17.78 11.2332429,17.78 L12.7483534,17.78 C14.4012011,17.78 15.5030996,17.64 15.9163115,17.5 C16.7427354,17.08 17.1559473,16.1 17.5691592,13.72 L17.5691592,13.58 L15.5030996,13.16 L15.5030996,13.3 C15.3653623,14.42 15.227625,15.4 14.6766757,15.82 C14.5389384,15.96 14.1257265,16.1 13.2993026,16.1 C12.3351414,16.1 12.0596668,15.96 11.9219295,15.96 C11.7841922,15.96 11.6464549,15.82 11.6464549,15.68 C11.5087176,15.54 11.5087176,15.26 11.5087176,14.98 L11.5087176,9.1 L16.7427354,9.1 L16.7427354,7.28 L9.71813251,7.28 L9.71813251,0.14 L7.78981015,0.14 L7.78981015,7.28 L0.765207284,7.28 L0.765207284,9.1 L5.17280124,9.1 L5.17280124,9.1 C5.17280124,10.5 5.17280124,12.04 4.48411468,13.16 C3.79542813,14.28 2.83126695,15.4 0.21425804,15.82 L0.0765207284,15.82 L0.902944595,17.92 L1.04068191,17.92 C3.51995351,17.36 5.31053855,16.1 6.27469973,14.28 C7.1011236,12.88 7.23886091,11.34 7.23886091,8.96 L7.23886091,8.96 L9.71813251,8.96 L9.71813251,15.54 L9.5803952,15.54 Z"></path>
                            <path d="M6.41243704,5.18 C5.72375048,3.92 4.34637737,2.1 3.3822162,1.12 L3.24447888,1.12 L1.45389384,2.38 L1.59163115,2.52 C2.55579233,3.5 3.65769082,4.9 4.48411468,6.3 L4.48411468,6.44 L6.41243704,5.18 L6.41243704,5.18 Z"></path>
                        </g>
                        <g transform="translate(0.000000, 0.502564)">
                            <path d="M5.50949244,7.14 L5.50949244,7.14 L5.50949244,7.14 C5.92270438,5.88 6.88686556,2.94 7.30007749,0.56 L7.30007749,0.42 L0.688686556,0.42 L0.688686556,18.2 L2.4792716,18.2 L2.4792716,2.24 L4.54533127,2.24 L4.68306858,2.24 L4.68306858,2.52 C4.54533127,2.8 4.54533127,3.22 4.40759396,3.78 L4.40759396,3.78 C4.13211933,4.9 3.7189074,6.44 3.44343278,7.28 L3.44343278,7.42 L3.44343278,7.42 L3.44343278,7.42 C3.7189074,7.7 4.40759396,8.4 4.82080589,9.66 C5.09628051,10.64 4.9585432,11.9 4.68306858,12.32 C4.26985664,12.74 3.85664471,12.74 3.16795816,12.74 L3.16795816,12.74 L2.89248353,12.74 L2.75474622,12.74 L2.75474622,12.88 L2.89248353,13.44 C3.03022084,14 3.03022084,14.28 3.03022084,14.7 L3.03022084,14.84 L3.16795816,14.84 C4.54533127,14.84 5.50949244,14.56 6.06044169,14.14 C6.74912824,13.58 7.02460287,12.88 7.02460287,11.76 C7.02460287,11.34 7.16234018,8.82 5.50949244,7.14 Z"></path>
                            <path d="M7.85102673,0.56 L7.85102673,0.56 L7.85102673,18.06 L9.77934909,18.06 L9.77934909,16.94 L9.77934909,16.94 L14.600155,16.94 L14.600155,18.2 L16.5284773,18.2 L16.5284773,0.7 L16.5284773,0.56 L7.85102673,0.56 Z M14.4624177,14.84 L9.77934909,14.84 L9.77934909,9.52 L14.4624177,9.52 L14.4624177,14.84 Z M14.4624177,7.7 L9.77934909,7.7 L9.77934909,2.38 L14.4624177,2.38 L14.4624177,7.7 Z"></path>
                        </g>
                        <path d="M65.976172,14.3625641 L65.976172,14.3625641 C65.976172,14.3625641 65.976172,14.2225641 65.976172,14.3625641 C65.976172,13.2425641 65.5629601,11.4225641 65.0120108,10.0225641 C65.0120108,10.0225641 65.0120108,10.0225641 65.0120108,9.8825641 L64.8742735,9.8825641 C64.3233243,10.0225641 63.6346377,10.3025641 63.3591631,10.3025641 L63.2214258,10.3025641 L63.2214258,10.4425641 C63.772375,11.5625641 64.185587,13.3825641 64.4610616,14.5025641 L64.4610616,14.6425641 L64.5987989,14.6425641 C64.8742735,14.6425641 65.1497482,14.5025641 65.2874855,14.5025641 C65.5629601,14.5025641 65.7006974,14.5025641 65.976172,14.3625641 Z"></path>
                        <path d="M67.9044944,13.5225641 C68.0422317,13.5225641 68.179969,13.5225641 68.3177063,13.3825641 L68.4554436,13.3825641 L68.4554436,13.2425641 C68.3177063,12.4025641 67.9044944,10.1625641 67.6290198,9.1825641 L67.6290198,9.0425641 L67.4912824,9.0425641 C66.9403332,9.1825641 66.6648586,9.1825641 65.976172,9.3225641 L65.8384347,9.3225641 L65.8384347,9.4625641 C66.2516466,10.5825641 66.6648586,12.2625641 66.9403332,13.3825641 C66.9403332,13.3825641 66.9403332,13.3825641 66.9403332,13.5225641 L67.0780705,13.5225641 C67.3535451,13.5225641 67.6290198,13.3825641 67.7667571,13.3825641 L67.9044944,13.5225641 Z"></path>
                        <path d="M73.1385122,15.9025641 L73.1385122,15.9025641 L69.8328167,15.7625641 L69.8328167,15.6225641 C70.2460287,14.7825641 71.3479272,12.6825641 72.0366137,10.1625641 L72.0366137,10.0225641 L71.8988764,10.0225641 L70.6592406,9.6025641 L70.383766,9.6025641 L70.1082914,9.4625641 L69.970554,9.4625641 L69.970554,9.6025641 C69.4196048,11.8425641 68.5931809,13.8025641 67.6290198,15.6225641 L67.6290198,15.6225641 L61.7063154,15.6225641 L61.7063154,15.7625641 L61.7063154,17.3025641 L61.7063154,17.4425641 L73.0007749,17.4425641 L73.0007749,17.3025641 L73.1385122,15.9025641 Z"></path>
                        <path d="M61.0176288,7.9225641 L61.0176288,7.9225641 L61.0176288,7.9225641 C61.0176288,7.7825641 61.1553661,7.6425641 61.1553661,7.5025641 L61.1553661,7.5025641 L61.1553661,7.3625641 L61.1553661,7.3625641 L61.2931034,7.0825641 C61.8440527,5.4025641 62.5327392,2.8825641 63.0836885,1.0625641 L63.0836885,0.922564103 L57.0232468,0.922564103 L57.0232468,18.0025641 L58.8138318,18.0025641 L58.8138318,2.8825641 L60.6044169,2.8825641 L60.6044169,3.0225641 L60.3289423,4.0025641 L60.3289423,4.0025641 C59.9157303,5.4025641 59.5025184,6.9425641 59.0893065,8.0625641 L59.0893065,8.0625641 L59.0893065,8.0625641 L59.3647811,8.3425641 L59.3647811,8.3425641 C60.0534676,9.3225641 60.6044169,10.1625641 60.8798915,11.1425641 C61.0176288,11.5625641 60.8798915,12.2625641 60.6044169,12.5425641 C60.3289423,12.8225641 59.9157303,12.9625641 59.2270438,12.9625641 L59.0893065,12.9625641 L59.0893065,13.1025641 C59.2270438,13.6625641 59.2270438,14.0825641 59.3647811,14.7825641 L59.3647811,14.9225641 L59.5025184,14.9225641 C60.8798915,14.7825641 61.5685781,14.5025641 62.1195273,13.9425641 C62.8082139,13.2425641 62.8082139,12.1225641 62.6704766,11.2825641 C62.5327392,10.3025641 61.98179,8.9025641 61.0176288,7.9225641 Z M74.1026734,6.3825641 C71.6234018,5.4025641 69.1441302,3.3025641 68.3177063,1.3425641 L68.3177063,1.3425641 L68.3177063,1.3425641 L68.4554436,1.0625641 L68.4554436,0.922564103 L68.3177063,0.922564103 C67.9044944,0.782564103 67.6290198,0.782564103 67.3535451,0.642564103 L66.5271213,0.362564103 L66.389384,0.362564103 L66.389384,0.502564103 C65.5629601,3.0225641 63.9101124,5.4025641 61.4308408,7.2225641 L61.2931034,7.3625641 L61.4308408,7.3625641 L61.4308408,7.3625641 L61.4308408,7.3625641 L61.4308408,7.3625641 L62.6704766,8.4825641 L62.8082139,8.6225641 L62.9459512,8.6225641 L63.0836885,8.6225641 C63.2214258,8.4825641 63.3591631,8.4825641 63.4969004,8.3425641 L63.4969004,8.3425641 C63.772375,8.0625641 64.185587,7.7825641 64.4610616,7.5025641 L64.5987989,7.3625641 L64.5987989,8.2025641 L71.3479272,8.2025641 L71.3479272,7.0825641 L71.4856645,7.2225641 C71.8988764,7.5025641 72.7253003,8.0625641 73.4139868,8.4825641 L73.5517241,8.4825641 L73.5517241,8.3425641 C73.8271988,7.9225641 73.9649361,7.5025641 74.1026734,7.0825641 L74.1026734,6.9425641 L74.378148,6.3825641 L74.1026734,6.3825641 L74.1026734,6.3825641 Z M65.0120108,6.6625641 L65.0120108,6.6625641 C66.1139093,5.2625641 66.9403332,4.1425641 67.3535451,3.3025641 L67.3535451,3.1625641 L67.3535451,3.3025641 C67.9044944,4.2825641 69.2818675,5.6825641 70.1082914,6.5225641 L70.2460287,6.6625641 L65.0120108,6.6625641 Z"></path>
                        <path d="M92.8349477,11.9825641 L85.9480821,11.9825641 L85.9480821,10.7225641 L92.0085238,10.7225641 L92.0085238,9.4625641 L86.6367687,9.4625641 L86.6367687,8.3425641 L91.1821,8.3425641 L91.1821,7.2225641 L86.6367687,7.2225641 L86.6367687,6.2425641 L91.1821,6.2425641 L91.1821,4.9825641 L86.6367687,4.9825641 L86.6367687,4.0025641 L91.8707865,4.0025641 L91.8707865,2.6025641 L86.3612941,2.6025641 C86.4990314,2.4625641 86.774506,2.3225641 87.0499806,2.1825641 L85.5348702,0.0825641026 L83.8820225,1.2025641 L84.8461836,2.6025641 L80.8518016,2.6025641 C80.8518016,2.6025641 81.9537001,1.3425641 81.9537001,1.2025641 C81.6782255,1.0625641 81.2650136,0.922564103 80.0253778,0.502564103 C80.0253778,0.502564103 78.9234793,2.4625641 76.0309957,6.2425641 C76.581945,6.6625641 76.8574196,7.0825641 77.1328942,7.3625641 C77.2706315,7.2225641 77.6838435,6.6625641 78.5102673,5.6825641 L78.785742,5.4025641 L78.785742,11.2825641 L80.7140643,11.2825641 L80.7140643,10.8625641 L83.7442852,10.8625641 L83.7442852,12.1225641 L76.581945,12.1225641 L76.581945,13.6625641 L82.0914374,13.6625641 C82.0914374,13.6625641 80.1631151,15.2025641 76.581945,16.3225641 C76.9951569,17.0225641 77.5461062,17.4425641 77.9593181,18.0025641 C80.1631151,17.0225641 82.0914374,16.0425641 83.4688105,14.9225641 L84.0197598,14.5025641 L84.0197598,18.2825641 L85.9480821,18.2825641 L85.9480821,14.2225641 L86.2235568,14.5025641 C87.4631926,15.6225641 88.8405657,16.6025641 90.3556761,17.1625641 L90.4934134,17.1625641 L90.6311507,17.1625641 C91.1821,17.4425641 91.5953119,17.5825641 91.8707865,17.5825641 C92.2839985,16.8825641 92.4217358,16.6025641 92.8349477,15.9025641 C90.0802015,15.0625641 87.8764045,13.2425641 87.8764045,13.2425641 L92.8349477,13.2425641 L92.8349477,11.9825641 L92.8349477,11.9825641 Z M84.8461836,9.4625641 L81.1272762,9.4625641 L81.1272762,8.3425641 L84.8461836,8.3425641 L84.8461836,9.4625641 Z M84.8461836,7.2225641 L81.1272762,7.2225641 L81.1272762,6.2425641 L84.8461836,6.2425641 L84.8461836,7.2225641 Z M84.8461836,4.9825641 L81.1272762,4.9825641 L81.1272762,4.0025641 L84.8461836,4.0025641 L84.8461836,4.9825641 Z"></path>
                        <path d="M106.884153,3.0225641 L104.955831,3.0225641 L104.955831,4.9825641 L99.4463386,4.9825641 L99.4463386,6.8025641 L103.578458,6.8025641 C103.578458,6.8025641 102.201085,9.7425641 99.3086013,11.9825641 C99.7218133,12.5425641 100.272762,13.1025641 100.548237,13.5225641 C103.440721,11.1425641 104.818094,8.2025641 104.818094,8.2025641 L104.818094,12.2625641 C104.818094,12.8225641 103.578458,12.9625641 103.027509,13.1025641 C103.165246,13.8025641 103.440721,14.7825641 103.440721,15.0625641 C103.440721,15.0625641 106.608679,14.6425641 106.608679,12.5425641 L106.608679,6.8025641 L109.08795,6.8025641 L109.08795,4.9825641 L106.608679,4.9825641 L106.608679,3.0225641 L106.884153,3.0225641 Z M96.8293297,0.922564103 L96.8293297,18.0025641 L98.6199148,18.0025641 L98.6199148,17.1625641 L109.776637,17.1625641 L109.776637,18.1425641 L111.704959,18.1425641 L111.704959,0.922564103 L96.8293297,0.922564103 Z M109.914374,15.3425641 L98.6199148,15.3425641 L98.6199148,2.4625641 L109.914374,2.4625641 L109.914374,15.3425641 Z"></path>
                    </g>
                    <g transform="translate(45.943045, 25.200000)" id="Shape" fill="#000000">
                        <path d="M0.688686556,4.9 L1.92832236,4.76 C2.06605967,5.18 2.20379698,5.46 2.34153429,5.74 C2.61700891,5.88 2.89248353,6.02 3.30569547,6.02 C3.7189074,6.02 3.99438202,5.88 4.26985664,5.74 C4.40759396,5.6 4.54533127,5.32 4.54533127,5.18 C4.54533127,5.04 4.54533127,4.9 4.40759396,4.76 C4.26985664,4.62 4.13211933,4.62 3.99438202,4.48 C3.85664471,4.48 3.44343278,4.34 3.03022084,4.2 C2.34153429,4.06 1.92832236,3.78 1.65284773,3.5 C1.2396358,3.22 1.10189849,2.66 1.10189849,2.24 C1.10189849,1.96 1.2396358,1.68 1.37737311,1.4 C1.51511042,1.12 1.79058504,0.84 2.20379698,0.7 C2.4792716,0.56 2.89248353,0.42 3.44343278,0.42 C4.26985664,0.42 4.82080589,0.56 5.23401782,0.98 C5.64722976,1.26 5.78496707,1.82 5.92270438,2.38 L4.68306858,2.38 C4.68306858,2.1 4.54533127,1.82 4.26985664,1.68 C4.13211933,1.54 3.85664471,1.4 3.44343278,1.4 C3.03022084,1.4 2.75474622,1.54 2.61700891,1.68 C2.4792716,1.82 2.4792716,1.96 2.4792716,2.1 C2.4792716,2.24 2.4792716,2.38 2.61700891,2.52 C2.75474622,2.66 3.16795816,2.8 3.7189074,2.94 C4.26985664,3.08 4.82080589,3.22 5.09628051,3.36 C5.37175513,3.5 5.64722976,3.78 5.78496707,4.06 C5.92270438,4.34 6.06044169,4.62 6.06044169,5.04 C6.06044169,5.46 5.92270438,5.74 5.78496707,6.02 C5.64722976,6.3 5.37175513,6.58 4.9585432,6.72 C4.54533127,6.86 4.13211933,7 3.58117009,7 C2.75474622,7 2.20379698,6.86 1.79058504,6.44 C1.10189849,6.16 0.826423867,5.6 0.688686556,4.9 Z"></path>
                        <path d="M9.77934909,7 L9.77934909,6.3 C9.64161178,6.58 9.36613716,6.72 9.09066253,6.86 C8.95292522,7 8.6774506,7 8.26423867,7 C7.98876404,7 7.71328942,7 7.4378148,6.86 C7.16234018,6.72 7.02460287,6.58 6.88686556,6.3 L6.88686556,5.32 L6.88686556,2.38 L8.12650136,2.38 L8.12650136,4.48 L8.12650136,5.6 C8.12650136,5.74 8.26423867,5.88 8.40197598,5.88 C8.53971329,6.02 8.6774506,6.02 8.81518791,6.02 C8.95292522,6.02 9.22839985,6.02 9.36613716,5.88 C9.50387447,5.74 9.64161178,5.6 9.64161178,5.46 C9.64161178,5.32 9.77934909,4.9 9.77934909,4.2 L9.77934909,2.24 L11.0189849,2.24 L11.0189849,7 L9.77934909,7 Z"></path>
                        <path d="M16.2530027,7 L15.1511042,7 L15.1511042,4.62 C15.1511042,4.06 15.1511042,3.78 15.0133669,3.64 C15.0133669,3.5 14.8756296,3.36 14.7378923,3.36 C14.600155,3.22 14.4624177,3.22 14.3246804,3.22 C14.0492057,3.22 13.9114684,3.22 13.7737311,3.36 C13.6359938,3.5 13.4982565,3.64 13.4982565,3.78 C13.4982565,3.92 13.3605192,4.34 13.3605192,4.9 L13.3605192,7 L12.1208834,7 L12.1208834,2.38 L13.2227819,2.38 L13.2227819,3.08 C13.6359938,2.52 14.0492057,2.24 14.7378923,2.24 C15.0133669,2.24 15.2888415,2.24 15.4265788,2.38 C15.7020535,2.52 15.8397908,2.66 15.9775281,2.8 C16.1152654,2.94 16.1152654,3.08 16.2530027,3.36 L16.2530027,4.2 L16.2530027,7 Z"></path>
                        <path d="M17.0794266,5.6 L18.3190624,5.46 C18.3190624,5.74 18.4567997,5.88 18.594537,6.02 C18.7322743,6.16 19.0077489,6.16 19.2832236,6.16 C19.5586982,6.16 19.8341728,6.16 19.9719101,6.02 C20.1096474,5.88 20.1096474,5.88 20.1096474,5.74 C20.1096474,5.6 20.1096474,5.6 19.9719101,5.46 C19.9719101,5.46 19.8341728,5.32 19.5586982,5.32 C18.594537,5.04 18.0435878,4.9 17.7681131,4.76 C17.3549012,4.48 17.2171639,4.2 17.2171639,3.78 C17.2171639,3.36 17.3549012,3.08 17.6303758,2.8 C17.9058504,2.52 18.4567997,2.38 19.0077489,2.38 C19.5586982,2.38 20.1096474,2.52 20.385122,2.66 C20.6605967,2.8 20.9360713,3.22 21.0738086,3.5 L19.9719101,3.78 C19.9719101,3.64 19.8341728,3.5 19.6964355,3.36 C19.5586982,3.22 19.4209609,3.22 19.1454862,3.22 C18.8700116,3.22 18.594537,3.22 18.4567997,3.36 C18.3190624,3.36 18.3190624,3.5 18.3190624,3.64 C18.3190624,3.78 18.3190624,3.78 18.4567997,3.92 C18.594537,4.06 18.8700116,4.06 19.5586982,4.2 C20.2473847,4.34 20.6605967,4.48 20.9360713,4.76 C21.2115459,5.04 21.3492832,5.32 21.3492832,5.6 C21.3492832,6.02 21.2115459,6.44 20.798334,6.72 C20.385122,7 19.9719101,7 19.2832236,7 C18.7322743,7 18.1813251,6.86 17.7681131,6.58 C17.4926385,6.44 17.2171639,6.02 17.0794266,5.6 Z"></path>
                        <path d="M23.5530802,0.56 L23.5530802,2.94 C23.9662921,2.52 24.3795041,2.24 24.9304533,2.24 C25.2059279,2.24 25.4814026,2.24 25.6191399,2.38 C25.8946145,2.52 26.0323518,2.66 26.1700891,2.8 C26.3078264,2.94 26.3078264,3.08 26.4455637,3.36 L26.4455637,4.34 L26.4455637,7 L25.2059279,7 L25.2059279,4.62 L25.2059279,3.64 C25.2059279,3.5 25.0681906,3.36 24.9304533,3.36 C24.792716,3.22 24.6549787,3.22 24.5172414,3.22 C24.3795041,3.22 24.1040294,3.22 23.9662921,3.36 C23.8285548,3.5 23.6908175,3.64 23.6908175,3.78 C23.5530802,3.92 23.5530802,4.34 23.5530802,4.62 L23.5530802,7 L22.3134444,7 L22.3134444,0.7 L23.5530802,0.7 L23.5530802,0.56 Z"></path>
                        <path d="M27.6851995,1.68 L27.6851995,0.56 L28.9248353,0.56 L28.9248353,1.68 L27.6851995,1.68 Z M27.6851995,7 L27.6851995,2.38 L28.9248353,2.38 L28.9248353,7 L27.6851995,7 Z"></path>
                        <path d="M34.2965905,7 L33.0569547,7 L33.0569547,4.62 C33.0569547,4.06 33.0569547,3.78 32.9192174,3.64 C32.9192174,3.5 32.78148,3.36 32.6437427,3.36 C32.5060054,3.22 32.3682681,3.22 32.2305308,3.22 C31.9550562,3.22 31.8173189,3.22 31.6795816,3.36 C31.5418442,3.5 31.4041069,3.64 31.4041069,3.78 C31.4041069,3.92 31.2663696,4.34 31.2663696,4.9 L31.2663696,7 L30.0267338,7 L30.0267338,2.38 L31.1286323,2.38 L31.1286323,3.08 C31.5418442,2.52 31.9550562,2.24 32.6437427,2.24 C32.9192174,2.24 33.194692,2.24 33.3324293,2.38 C33.6079039,2.52 33.7456412,2.66 33.8833785,2.8 C34.0211158,2.94 34.0211158,3.08 34.1588532,3.36 L34.1588532,4.2 L34.1588532,7 L34.2965905,7 Z"></path>
                        <path d="M38.1532352,5.46 L39.392871,5.6 C39.2551337,6.02 38.979659,6.44 38.7041844,6.58 C38.2909725,7 37.8777606,7 37.3268113,7 C36.5003874,7 35.9494382,6.72 35.5362263,6.16 C35.2607516,5.74 35.1230143,5.18 35.1230143,4.62 C35.1230143,3.92 35.2607516,3.22 35.6739636,2.8 C36.0871755,2.38 36.5003874,2.1 37.189074,2.1 C37.8777606,2.1 38.4287098,2.38 38.8419217,2.8 C39.2551337,3.22 39.392871,3.92 39.392871,4.9 L36.3626501,4.9 C36.3626501,5.32 36.5003874,5.6 36.6381248,5.74 C36.7758621,5.88 37.0513367,6.02 37.3268113,6.02 C37.4645486,6.02 37.7400232,6.02 37.7400232,5.88 C37.8777606,5.88 38.0154979,5.74 38.1532352,5.46 Z M38.1532352,4.34 C38.1532352,3.92 38.0154979,3.78 37.8777606,3.5 C37.7400232,3.36 37.4645486,3.22 37.189074,3.22 C36.9135994,3.22 36.7758621,3.36 36.5003874,3.5 C36.3626501,3.64 36.2249128,3.92 36.2249128,4.34 L38.1532352,4.34 Z"></path>
                        <polygon points="42.6985664 7 42.6985664 0.7 43.9382022 0.7 43.9382022 7"></polygon>
                        <path d="M49.3099574,7 L48.0703216,7 L48.0703216,4.62 C48.0703216,4.06 48.0703216,3.78 47.9325843,3.64 C47.9325843,3.5 47.794847,3.36 47.6571096,3.36 C47.5193723,3.22 47.381635,3.22 47.2438977,3.22 C46.9684231,3.22 46.8306858,3.22 46.6929485,3.36 C46.5552112,3.5 46.4174738,3.64 46.4174738,3.78 C46.4174738,3.92 46.2797365,4.34 46.2797365,4.9 L46.2797365,7 L45.0401007,7 L45.0401007,2.38 L46.1419992,2.38 L46.1419992,3.08 C46.5552112,2.52 46.9684231,2.24 47.6571096,2.24 C47.9325843,2.24 48.2080589,2.24 48.3457962,2.38 C48.6212708,2.52 48.7590081,2.66 48.8967454,2.8 C49.0344828,2.94 49.0344828,3.08 49.1722201,3.36 L49.1722201,4.2 L49.1722201,7 L49.3099574,7 Z"></path>
                        <path d="M50.1363812,5.6 L51.376017,5.46 C51.376017,5.74 51.5137544,5.88 51.6514917,6.02 C51.789229,6.16 52.0647036,6.16 52.3401782,6.16 C52.6156528,6.16 52.8911275,6.16 53.0288648,6.02 C53.1666021,5.88 53.1666021,5.88 53.1666021,5.74 C53.1666021,5.6 53.1666021,5.6 53.0288648,5.46 C53.0288648,5.46 52.8911275,5.32 52.6156528,5.32 C51.6514917,5.04 51.1005424,4.9 50.8250678,4.76 C50.4118559,4.48 50.2741186,4.2 50.2741186,3.78 C50.2741186,3.36 50.4118559,3.08 50.6873305,2.8 C50.9628051,2.52 51.5137544,2.38 52.0647036,2.38 C52.6156528,2.38 53.1666021,2.52 53.4420767,2.66 C53.7175513,2.8 53.993026,3.22 54.1307633,3.5 L53.0288648,3.78 C53.0288648,3.64 52.8911275,3.5 52.7533902,3.36 C52.6156528,3.22 52.4779155,3.22 52.2024409,3.22 C51.9269663,3.22 51.6514917,3.22 51.5137544,3.36 C51.376017,3.36 51.376017,3.5 51.376017,3.64 C51.376017,3.78 51.376017,3.78 51.5137544,3.92 C51.6514917,4.06 51.9269663,4.06 52.6156528,4.2 C53.3043394,4.34 53.7175513,4.48 53.993026,4.76 C54.2685006,5.04 54.4062379,5.32 54.4062379,5.6 C54.4062379,6.02 54.2685006,6.44 53.8552886,6.72 C53.4420767,7 53.0288648,7.14 52.3401782,7.14 C51.789229,7.14 51.2382797,7 50.8250678,6.72 C50.4118559,6.44 50.1363812,6.02 50.1363812,5.6 Z"></path>
                        <path d="M58.4006199,7 L58.4006199,6.3 C58.2628826,6.58 57.987408,6.72 57.7119334,6.86 C57.4364587,7 57.1609841,7.14 56.8855095,7.14 C56.6100349,7.14 56.3345602,7.14 56.0590856,7 C55.783611,6.86 55.6458737,6.72 55.5081364,6.44 C55.3703991,6.16 55.3703991,5.88 55.3703991,5.46 L55.3703991,2.52 L56.6100349,2.52 L56.6100349,4.62 L56.6100349,5.74 C56.6100349,5.88 56.7477722,6.02 56.8855095,6.02 C57.0232468,6.16 57.1609841,6.16 57.2987214,6.16 C57.4364587,6.16 57.7119334,6.16 57.8496707,6.02 C57.987408,5.88 58.1251453,5.74 58.1251453,5.6 C58.1251453,5.46 58.2628826,5.04 58.2628826,4.34 L58.2628826,2.38 L59.5025184,2.38 L59.5025184,7 L58.4006199,7 Z"></path>
                        <path d="M61.8440527,7 L60.6044169,7 L60.6044169,2.38 L61.7063154,2.38 L61.7063154,3.08 C61.8440527,2.8 62.1195273,2.52 62.2572646,2.52 C62.3950019,2.38 62.5327392,2.38 62.8082139,2.38 C63.0836885,2.38 63.3591631,2.52 63.6346377,2.66 L63.2214258,3.78 C63.0836885,3.64 62.8082139,3.64 62.6704766,3.64 C62.5327392,3.64 62.3950019,3.64 62.2572646,3.78 C62.1195273,3.92 61.98179,4.06 61.98179,4.34 C61.98179,4.62 61.8440527,5.04 61.8440527,5.88 L61.8440527,7 Z"></path>
                        <path d="M65.0120108,3.78 L63.9101124,3.64 C64.0478497,3.22 64.185587,2.8 64.5987989,2.66 C64.8742735,2.38 65.2874855,2.38 65.976172,2.38 C66.5271213,2.38 66.9403332,2.38 67.2158078,2.52 C67.4912824,2.66 67.6290198,2.8 67.7667571,3.08 C67.9044944,3.22 67.9044944,3.64 67.9044944,4.2 L67.9044944,5.6 L67.9044944,6.44 C67.9044944,6.58 68.0422317,6.86 68.179969,7 L66.9403332,7 C66.9403332,6.86 66.9403332,6.86 66.8025959,6.58 L66.8025959,6.44 C66.6648586,6.58 66.389384,6.86 66.1139093,6.86 C65.8384347,7 65.7006974,7 65.4252228,7 C65.0120108,7 64.5987989,6.86 64.3233243,6.58 C64.0478497,6.3 63.9101124,6.02 63.9101124,5.6 C63.9101124,5.32 63.9101124,5.04 64.0478497,4.9 C64.185587,4.76 64.3233243,4.48 64.5987989,4.48 C64.8742735,4.34 65.1497482,4.34 65.5629601,4.2 C66.1139093,4.06 66.5271213,4.06 66.6648586,3.92 L66.6648586,3.78 C66.6648586,3.5 66.6648586,3.36 66.5271213,3.22 C66.389384,3.08 66.2516466,3.08 65.8384347,3.08 C65.5629601,3.08 65.4252228,3.08 65.2874855,3.22 C65.1497482,3.36 65.0120108,3.5 65.0120108,3.78 Z M66.6648586,4.76 C66.5271213,4.76 66.2516466,4.9 65.976172,4.9 C65.7006974,5.04 65.4252228,5.04 65.2874855,5.18 C65.1497482,5.32 65.0120108,5.46 65.0120108,5.6 C65.0120108,5.74 65.0120108,5.88 65.1497482,6.02 C65.2874855,6.16 65.4252228,6.16 65.5629601,6.16 C65.8384347,6.16 65.976172,6.02 66.1139093,5.88 C66.2516466,5.74 66.389384,5.6 66.389384,5.46 L66.389384,4.9 L66.389384,4.76 L66.6648586,4.76 Z"></path>
                        <path d="M73.1385122,7 L71.8988764,7 L71.8988764,4.62 C71.8988764,4.06 71.8988764,3.78 71.7611391,3.64 C71.7611391,3.5 71.6234018,3.36 71.4856645,3.36 C71.3479272,3.22 71.2101898,3.22 71.0724525,3.22 C70.7969779,3.22 70.6592406,3.22 70.5215033,3.36 C70.383766,3.5 70.2460287,3.64 70.2460287,3.78 C70.2460287,3.92 70.1082914,4.34 70.1082914,4.9 L70.1082914,7 L68.8686556,7 L68.8686556,2.38 L69.970554,2.38 L69.970554,3.08 C70.383766,2.52 70.7969779,2.24 71.4856645,2.24 C71.7611391,2.24 72.0366137,2.24 72.174351,2.38 C72.4498256,2.52 72.587563,2.66 72.7253003,2.8 C72.8630376,2.94 72.8630376,3.08 73.0007749,3.36 L73.0007749,4.2 L73.0007749,7 L73.1385122,7 Z"></path>
                        <path d="M78.2347927,3.78 L76.9951569,4.06 C76.9951569,3.78 76.8574196,3.64 76.7196823,3.5 C76.581945,3.36 76.4442077,3.36 76.168733,3.36 C75.8932584,3.36 75.6177838,3.5 75.4800465,3.64 C75.3423092,3.78 75.2045719,4.2 75.2045719,4.76 C75.2045719,5.32 75.3423092,5.74 75.4800465,5.88 C75.6177838,6.16 75.8932584,6.16 76.168733,6.16 C76.4442077,6.16 76.581945,6.16 76.7196823,6.02 C76.8574196,5.88 76.9951569,5.6 76.9951569,5.32 L78.2347927,5.46 C78.0970554,6.02 77.8215808,6.44 77.5461062,6.72 C77.1328942,7 76.7196823,7.14 76.168733,7.14 C75.4800465,7.14 74.9290972,6.86 74.5158853,6.44 C74.1026734,6.02 73.9649361,5.46 73.9649361,4.62 C73.9649361,3.92 74.1026734,3.22 74.5158853,2.8 C74.9290972,2.38 75.4800465,2.1 76.168733,2.1 C76.7196823,2.1 77.1328942,2.24 77.5461062,2.52 C77.8215808,2.8 78.0970554,3.22 78.2347927,3.78 Z"></path>
                        <path d="M81.8159628,5.46 L83.0555986,5.6 C82.9178613,6.02 82.6423867,6.44 82.366912,6.58 C82.0914374,6.86 81.6782255,6.86 81.1272762,6.86 C80.3008524,6.86 79.7499031,6.58 79.3366912,6.02 C79.0612166,5.6 78.9234793,5.04 78.9234793,4.48 C78.9234793,3.78 79.0612166,3.08 79.4744285,2.66 C79.8876404,2.24 80.3008524,1.96 80.9895389,1.96 C81.6782255,1.96 82.2291747,2.24 82.6423867,2.66 C83.0555986,3.08 83.1933359,3.78 83.1933359,4.76 L80.1631151,4.76 C80.1631151,5.18 80.3008524,5.46 80.4385897,5.6 C80.576327,5.74 80.8518016,5.88 81.1272762,5.88 C81.2650136,5.88 81.4027509,5.88 81.5404882,5.74 C81.6782255,5.88 81.6782255,5.74 81.8159628,5.46 Z M81.8159628,4.34 C81.8159628,3.92 81.6782255,3.78 81.5404882,3.5 C81.4027509,3.36 81.1272762,3.22 80.8518016,3.22 C80.576327,3.22 80.4385897,3.36 80.1631151,3.5 C80.0253778,3.64 79.8876404,3.92 79.8876404,4.34 L81.8159628,4.34 Z"></path>
                        <path d="M89.3915149,4.62 L89.3915149,3.5 L92.1462611,3.5 L92.1462611,6.02 C91.8707865,6.3 91.4575746,6.44 91.0443627,6.72 C90.4934134,6.86 90.0802015,7 89.5292522,7 C88.8405657,7 88.2896164,6.86 87.8764045,6.58 C87.3254552,6.3 87.0499806,5.88 86.774506,5.32 C86.4990314,4.76 86.3612941,4.2 86.3612941,3.64 C86.3612941,2.94 86.4990314,2.38 86.774506,1.82 C87.0499806,1.26 87.4631926,0.98 88.0141418,0.7 C88.4273537,0.42 88.978303,0.42 89.5292522,0.42 C90.3556761,0.42 90.9066253,0.56 91.3198373,0.98 C91.7330492,1.26 92.0085238,1.82 92.1462611,2.38 L90.9066253,2.66 C90.768888,2.38 90.6311507,2.1 90.3556761,1.96 C90.0802015,1.82 89.8047269,1.68 89.3915149,1.68 C88.8405657,1.68 88.4273537,1.82 88.0141418,2.24 C87.7386672,2.66 87.4631926,3.08 87.4631926,3.78 C87.4631926,4.48 87.6009299,5.04 88.0141418,5.46 C88.2896164,5.88 88.8405657,6.02 89.2537776,6.02 C89.5292522,6.02 89.8047269,6.02 90.0802015,5.88 C90.3556761,5.74 90.6311507,5.6 90.768888,5.46 L90.768888,4.62 L89.3915149,4.62 L89.3915149,4.62 Z"></path>
                        <path d="M94.3500581,7 L93.1104223,7 L93.1104223,2.38 L94.2123208,2.38 L94.2123208,3.08 C94.3500581,2.8 94.6255327,2.52 94.7632701,2.52 C94.9010074,2.38 95.0387447,2.38 95.3142193,2.38 C95.5896939,2.38 95.8651685,2.52 96.1406432,2.66 L95.7274312,3.78 C95.5896939,3.64 95.3142193,3.64 95.176482,3.64 C95.0387447,3.64 94.9010074,3.64 94.7632701,3.78 C94.6255327,3.92 94.4877954,4.06 94.4877954,4.34 C94.4877954,4.62 94.3500581,5.04 94.3500581,5.88 L94.3500581,7 Z"></path>
                        <path d="M96.4161178,4.62 C96.4161178,4.2 96.5538551,3.78 96.6915924,3.5 C96.8293297,3.08 97.1048043,2.8 97.5180163,2.66 C97.9312282,2.52 98.3444401,2.38 98.7576521,2.38 C99.4463386,2.38 99.9972879,2.66 100.4105,3.08 C100.823712,3.5 101.099186,4.06 101.099186,4.76 C101.099186,5.46 100.823712,6.02 100.4105,6.44 C99.9972879,6.86 99.4463386,7.14 98.7576521,7.14 C98.3444401,7.14 97.9312282,7 97.5180163,6.86 C97.1048043,6.72 96.8293297,6.44 96.6915924,6.02 C96.4161178,5.6 96.4161178,5.18 96.4161178,4.62 Z M97.5180163,4.62 C97.5180163,5.04 97.6557536,5.46 97.7934909,5.6 C98.0689655,5.88 98.2067028,6.02 98.6199148,6.02 C98.8953894,6.02 99.170864,5.88 99.4463386,5.6 C99.7218133,5.32 99.7218133,5.04 99.7218133,4.48 C99.7218133,4.06 99.5840759,3.64 99.4463386,3.5 C99.170864,3.22 99.0331267,3.08 98.6199148,3.08 C98.3444401,3.08 98.0689655,3.22 97.7934909,3.5 C97.6557536,3.92 97.5180163,4.2 97.5180163,4.62 Z"></path>
                        <path d="M104.955831,7 L104.955831,6.3 C104.818094,6.58 104.542619,6.72 104.267145,6.86 C103.99167,7 103.716195,7.14 103.440721,7.14 C103.165246,7.14 102.889771,7.14 102.614297,7 C102.338822,6.86 102.201085,6.72 102.063348,6.44 C101.92561,6.16 101.92561,5.88 101.92561,5.46 L101.92561,2.52 L103.165246,2.52 L103.165246,4.62 L103.165246,5.74 C103.165246,5.88 103.302983,6.02 103.440721,6.02 C103.578458,6.16 103.716195,6.16 103.853933,6.16 C103.99167,6.16 104.267145,6.16 104.404882,6.02 C104.542619,5.88 104.680356,5.74 104.680356,5.6 C104.680356,5.46 104.818094,5.04 104.818094,4.34 L104.818094,2.38 L106.05773,2.38 L106.05773,7 L104.955831,7 Z"></path>
                        <path d="M107.297365,2.38 L108.399264,2.38 L108.399264,3.08 C108.537001,2.8 108.674738,2.66 108.950213,2.52 C109.225688,2.38 109.501162,2.24 109.776637,2.24 C110.327586,2.24 110.740798,2.38 111.15401,2.8 C111.567222,3.22 111.704959,3.78 111.704959,4.48 C111.704959,5.18 111.567222,5.88 111.15401,6.3 C110.740798,6.72 110.327586,7 109.776637,7 C109.501162,7 109.363425,7 109.08795,6.86 C108.950213,6.72 108.674738,6.58 108.399264,6.3 L108.399264,8.68 L107.159628,8.68 L107.159628,2.38 L107.297365,2.38 Z M108.399264,4.62 C108.399264,5.18 108.537001,5.46 108.674738,5.74 C108.812476,6.02 109.08795,6.16 109.363425,6.16 C109.6389,6.16 109.914374,6.02 110.052112,5.88 C110.189849,5.6 110.327586,5.32 110.327586,4.76 C110.327586,4.34 110.189849,3.92 110.052112,3.64 C109.914374,3.36 109.6389,3.22 109.363425,3.22 C109.08795,3.22 108.812476,3.36 108.674738,3.5 C108.537001,3.78 108.399264,4.2 108.399264,4.62 Z"></path>
                    </g>
                </g>
            </g>
        </g>
    </g>
</svg>