<?xml version="1.0" encoding="UTF-8"?>
<svg width="26px" height="20px" viewBox="0 0 26 20" version="1.1" xmlns="http://www.w3.org/2000/svg" xmlns:xlink="http://www.w3.org/1999/xlink">
    <!-- Generator: Sketch 42 (36781) - http://www.bohemiancoding.com/sketch -->
    <title>消息</title>
    <desc>Created with Sketch.</desc>
    <defs>
        <polygon id="path-1" points="20.9372337 0 0.146327504 0 0.146327504 8.82416729 20.9372337 8.82416729 20.9372337 2.2355306e-15"></polygon>
    </defs>
    <g id="Symbols" stroke="none" stroke-width="1" fill="none" fill-rule="evenodd">
        <g id="消息">
            <g id="Group-2">
                <g id="Page-1" transform="translate(0.000000, 3.562500)">
                    <g id="Group-3" transform="translate(0.620032, 0.000315)">
                        <mask id="mask-2" fill="white">
                            <use xlink:href="#path-1"></use>
                        </mask>
                        <g id="Clip-2"></g>
                        <path d="M10.5411606,8.82416729 L20.9372337,0.0336017323 C20.8808108,0.0235337976 20.8299682,-0.000377547554 20.7716852,-0.000377547554 L0.31063593,-0.000377547554 C0.253593005,-0.000377547554 0.202750397,0.0235337976 0.146327504,0.0336017323 L10.5411606,8.82416729 Z" id="Fill-1" fill="#F9B900" mask="url(#mask-2)"></path>
                    </g>
                    <path d="M22.3217647,0.944183509 C22.3217647,0.845391899 22.2951033,0.753521994 22.2653418,0.663539827 L14.8962639,6.8962207 L22.2765024,14.3880227 C22.2957234,14.3125132 22.3217647,14.2395206 22.3217647,14.1583479 L22.3217647,0.944183509 Z" id="Fill-4" fill="#F9B900"></path>
                    <path d="M0.0572289348,0.662155486 C0.0287074722,0.753396145 0.000186009539,0.843378312 0.000186009539,0.94405766 L0.000186009539,14.1582221 C0.000186009539,14.2412825 0.0280874404,14.3130166 0.0460683625,14.3885261 L7.429407,6.8967241 L0.0572289348,0.662155486 Z" id="Fill-6" fill="#F9B900"></path>
                    <path d="M14.177461,7.50331717 L11.4580016,9.80195253 C11.3730572,9.8755743 11.2676518,9.91081208 11.1610064,9.91081208 C11.055601,9.91081208 10.9495755,9.8755743 10.8633911,9.80195253 L8.14641176,7.50457566 L0.705410175,15.0555267 C0.779193959,15.0750334 0.851737679,15.1020909 0.930481717,15.1020909 L21.391531,15.1020909 C21.4727552,15.1020909 21.5452989,15.0750334 21.6197027,15.0555267 L14.177461,7.50331717 Z" id="Fill-8" fill="#F9B900"></path>
                </g>
                <ellipse id="Oval-4" fill="#FF1A1A" cx="21.8636364" cy="4.15625" rx="4.13636364" ry="4.15625"></ellipse>
            </g>
        </g>
    </g>
</svg>