<?xml version="1.0" encoding="UTF-8"?>
<svg width="40px" height="46px" viewBox="0 0 40 46" version="1.1" xmlns="http://www.w3.org/2000/svg" xmlns:xlink="http://www.w3.org/1999/xlink">
    <!-- Generator: Sketch 42 (36781) - http://www.bohemiancoding.com/sketch -->
    <title>Group 3</title>
    <desc>Created with Sketch.</desc>
    <defs></defs>
    <g id="Page-1" stroke="none" stroke-width="1" fill="none" fill-rule="evenodd">
        <g id="一荐倾心" transform="translate(-409.000000, -436.000000)">
            <g id="Group-3" transform="translate(409.000000, 436.000000)">
                <path d="M39.5995222,22.5806452 C39.6216698,21.7821298 39.3495907,20.9739409 38.7731064,20.3336902 L21.5052473,1.15578979 C20.3161371,-0.164850943 18.2734662,-0.275079861 16.9495063,0.917018944 C15.6282405,2.10669207 15.5186582,4.14879314 16.7107646,5.47276144 L32.1147723,22.5806452 L16.7107646,39.6885289 C15.5186582,41.0124972 15.6282405,43.0545983 16.9495063,44.2442714 C18.2734662,45.4363702 20.3161371,45.3261413 21.5052473,44.0055005 L38.7731064,24.8276002 C39.3495907,24.1873495 39.6216698,23.3791605 39.5995222,22.5806452 Z" id="Combined-Shape" fill="#F2F2F2"></path>
                <path d="M24.1156512,22.5806452 C24.1377988,21.7821298 23.8657197,20.9739409 23.2892354,20.3336902 L6.02137636,1.15578979 C4.8322661,-0.164850943 2.78959523,-0.275079861 1.46563538,0.917018944 C0.144369522,2.10669207 0.0347871991,4.14879314 1.22689361,5.47276144 L16.6309013,22.5806452 L1.22689361,39.6885289 C0.0347871991,41.0124972 0.144369522,43.0545983 1.46563538,44.2442714 C2.78959523,45.4363702 4.8322661,45.3261413 6.02137636,44.0055005 L23.2892354,24.8276002 C23.8657197,24.1873495 24.1377988,23.3791605 24.1156512,22.5806452 Z" id="Combined-Shape" fill="#E7E7E7"></path>
            </g>
        </g>
    </g>
</svg>